<svg height="512" viewBox="0 0 64 64" width="512" xmlns="http://www.w3.org/2000/svg"><g id="Filled_outline" data-name="Filled outline"><path d="m52 34c-3.531-.589-14-3-14-3l-11-10v-8l-7-1-13 10-4 18 2 6-2 5a2 2 0 0 0 2 2h20l5-2 5 2h22a4 4 0 0 0 4-4v-6c0-4.971-3-8-9-9z" fill="#da1c4b"/><path d="m60 39v-.3c-1.331-2.453-3.992-4.031-8-4.7-3.531-.589-14-3-14-3l-11-10v-8l-7-1-10.065 7.742.065.258v8a4 4 0 0 0 4 4h6a2 2 0 0 1 2 2v1a4 4 0 0 0 4 4z" fill="#394d5c"/><g fill="#aabece"><path d="m5 46a33.016 33.016 0 0 1 13 3l12-2 6 2h13v4h-14l-5-2-5 2h-20a2 2 0 0 1 -2-2z"/><path d="m32 37 6-6-4.19-3.81-5.81 5.81z"/><path d="m31.19 24.81-4.19-3.81-6 6 4 4z"/><path d="m15 21 3 3 9-8.25v-2.75l-2.765-.395z"/></g><path d="m49 53v-6a2 2 0 0 1 2-2h10v4a4 4 0 0 1 -4 4z" fill="#7d8d9c"/><path d="m52.164 33.014c-3.156-.526-12.062-2.558-13.685-2.93l-10.479-9.526v-7.558a1 1 0 0 0 -.858-.99l-7-1a1 1 0 0 0 -.751.2l-13 10a1 1 0 0 0 -.368.575l-4 18a1 1 0 0 0 .029.533l1.884 5.653-1.865 4.657a1.012 1.012 0 0 0 -.071.372 3 3 0 0 0 3 3h20a1 1 0 0 0 .371-.071l4.629-1.852 4.629 1.852a1 1 0 0 0 .371.071h22a5.006 5.006 0 0 0 5-5v-6c0-3.808-1.706-8.631-9.836-9.986zm-15.613-1.979-4.551 4.551-2.586-2.586 4.428-4.428zm-6.809-6.191-4.742 4.742-2.586-2.586 4.619-4.619zm-3.742-10.977v1.443l-7.97 7.306-1.582-1.581 8.111-7.374zm-15 6.318 9.275-7.136 1.715.245-7.663 6.966a1 1 0 0 0 -.034 1.447l3 3a1 1 0 0 0 1.383.03l7.324-6.714v2.563l-5.707 5.707a1 1 0 0 0 0 1.414l4 4a1 1 0 0 0 1.414 0l5.516-5.516 1.138 1.034-5.068 5.068a1 1 0 0 0 0 1.414l4 4a1 1 0 0 0 1.414 0l5.609-5.607c2.2.5 10.415 2.37 13.52 2.887 2.973.5 5.112 1.5 6.455 3.014h-32.291a3 3 0 0 1 -3-3v-1.001a3 3 0 0 0 -3-3h-6a3 3 0 0 1 -3-3zm37 31.815h-12.808l-4.821-1.929a1.011 1.011 0 0 0 -.742 0l-4.821 1.929h-11.421l.561-1.684-1.9-.632-.768 2.316h-2.662l1.282-2.553-1.79-.894-1.728 3.447h-1.382a1 1 0 0 1 -.987-.839l1.656-4.139a31.791 31.791 0 0 1 11.884 2.878 1 1 0 0 0 .611.091l11.755-1.959 5.765 1.922a1 1 0 0 0 .316.046h12zm12-3a3 3 0 0 1 -3 3h-7v-5a1 1 0 0 1 1-1h9zm0-5h-9a3 3 0 0 0 -3 3v1h-11.838l-5.846-1.949a1 1 0 0 0 -.48-.037l-11.684 1.947a33.616 33.616 0 0 0 -12.425-2.941l-1.691-5.073 3.864-17.376 1.076-.827.024 6.256a5.006 5.006 0 0 0 5 5h6a1 1 0 0 1 1 1v1a5.006 5.006 0 0 0 5 5h33.5a8.484 8.484 0 0 1 .5 3z"/><path d="m14 29h4v-2h-3v-2h-2v3a1 1 0 0 0 1 1z"/><path d="m39 34h2v2h-2z"/><path d="m56 48h2v2h-2z"/><path d="m52 48h2v2h-2z"/><path d="m19.186 43.95a24.939 24.939 0 0 0 -10.457-2.926l-.7-2.088.951-4.736-1.96-.4-1 5a.979.979 0 0 0 .032.512l1 3a1 1 0 0 0 .948.688 23.158 23.158 0 0 1 10.485 2.857 1 1 0 0 0 .515.143.985.985 0 0 0 .179-.016l11-2-.358-1.968z"/><path d="m33.5 41.307h2v5.385h-2z" transform="matrix(.371 -.928 .928 .371 -19.166 59.691)"/><path d="m39 44h7v2h-7z"/><path d="m13 40a1.011 1.011 0 0 0 .447-.1l6-3-.894-1.79-5.353 2.673-1.49-1.49-1.414 1.414 2 2a1 1 0 0 0 .704.293z"/></g></svg>